<?xml version="1.0" standalone="no"?>
<!DOCTYPE svg PUBLIC "-//W3C//DTD SVG 20010904//EN"
 "http://www.w3.org/TR/2001/REC-SVG-20010904/DTD/svg10.dtd">
<svg version="1.0" xmlns="http://www.w3.org/2000/svg"
 width="512.000000pt" height="171.000000pt" viewBox="0 0 512.000000 171.000000"
 preserveAspectRatio="xMidYMid meet">

<g transform="translate(0.000000,171.000000) scale(0.100000,-0.100000)"
fill="#000000" stroke="none">
<path d="M2251 1585 c-18 -8 -44 -12 -57 -9 -14 4 -31 1 -40 -6 -13 -12 -14
-52 -7 -344 4 -182 8 -350 8 -373 0 -22 3 -39 7 -37 4 3 6 112 5 244 -2 217 1
265 16 228 3 -7 3 3 0 22 -3 19 -12 47 -19 62 -15 29 -19 155 -6 175 4 7 36
13 70 15 47 2 62 7 62 18 1 12 4 11 15 -4 8 -10 12 -23 8 -29 -3 -5 0 -12 6
-16 9 -6 12 -150 11 -566 0 -307 2 -556 5 -554 2 3 5 252 5 555 1 656 1 658
-89 619z"/>
<path d="M2581 1576 c-6 -7 -8 -22 -4 -31 4 -12 3 -16 -5 -11 -7 4 -9 -5 -5
-31 13 -92 21 -97 20 -13 -2 84 -2 85 23 87 22 2 23 2 5 -6 -13 -6 -3 -8 32
-4 47 5 122 -12 109 -24 -3 -3 -1 -15 4 -28 5 -13 6 -26 2 -29 -10 -11 -13
-194 -3 -200 5 -4 10 34 10 93 1 55 4 106 7 114 3 8 -1 30 -9 49 -13 31 -20
36 -62 41 -73 11 -111 8 -124 -7z"/>
<path d="M2851 1546 c-18 -22 -26 -113 -13 -147 9 -22 19 -27 63 -33 29 -4 66
-17 82 -28 l29 -21 -6 -167 c-3 -92 -9 -206 -12 -254 -6 -76 -5 -86 10 -87 9
-1 22 -2 29 -3 6 0 12 -10 12 -21 0 -14 -8 -21 -27 -23 -22 -3 -28 -9 -28 -27
0 -13 6 -25 13 -28 9 -3 9 -7 0 -19 -18 -21 -31 -635 -14 -666 11 -20 19 -22
97 -22 82 0 85 1 94 26 7 17 10 260 9 661 l-1 635 26 27 c24 23 33 26 88 24
34 -2 67 2 75 8 17 15 18 123 1 136 -17 13 -185 31 -368 39 -129 6 -147 5
-159 -10z m485 -72 c-4 -9 -9 -15 -11 -12 -3 3 -3 13 1 22 4 9 9 15 11 12 3
-3 3 -13 -1 -22z m-161 -106 c-6 -17 -4 -20 10 -14 15 5 16 4 5 -8 -10 -14
-14 -14 -27 -1 -12 12 -12 17 -1 29 18 21 20 20 13 -6z m-135 -38 c0 -5 -2
-10 -4 -10 -3 0 -8 5 -11 10 -3 6 -1 10 4 10 6 0 11 -4 11 -10z m35 -530 c3
-5 1 -10 -4 -10 -6 0 -11 5 -11 10 0 6 2 10 4 10 3 0 8 -4 11 -10z"/>
<path d="M2280 1520 c0 -5 5 -10 10 -10 6 0 10 5 10 10 0 6 -4 10 -10 10 -5 0
-10 -4 -10 -10z"/>
<path d="M2171 1504 c0 -11 3 -14 6 -6 3 7 2 16 -1 19 -3 4 -6 -2 -5 -13z"/>
<path d="M2162 1435 c0 -16 2 -22 5 -12 2 9 2 23 0 30 -3 6 -5 -1 -5 -18z"/>
<path d="M2576 1348 c-8 -71 -7 -139 4 -163 5 -13 9 23 9 98 1 64 -1 117 -3
117 -2 0 -6 -24 -10 -52z"/>
<path d="M2756 1255 c4 -8 2 -15 -4 -15 -5 0 -13 -8 -16 -17 -6 -15 -4 -15 14
2 21 19 27 45 10 45 -5 0 -7 -7 -4 -15z"/>
<path d="M2756 1191 c-13 -21 -26 -114 -17 -125 12 -14 17 -595 6 -699 -4 -42
-11 -80 -16 -83 -5 -3 -9 -20 -9 -37 0 -25 -3 -29 -10 -17 -8 11 -9 7 -4 -15
7 -28 6 -29 -11 -15 -17 14 -18 13 -13 -8 4 -14 2 -22 -6 -22 -14 0 -41 -24
-89 -79 -20 -23 -33 -30 -47 -26 -12 4 -20 2 -20 -5 0 -15 -162 -8 -181 8 -78
68 -102 92 -92 92 20 0 2 39 -21 42 -13 2 -21 10 -22 23 0 11 -4 27 -8 36 -4
9 -8 27 -10 40 -2 13 -8 36 -14 51 -6 14 -10 35 -10 45 1 10 -2 52 -6 93 -5
53 -4 71 3 60 9 -13 11 -13 11 1 0 9 -7 19 -15 23 -12 4 -14 17 -9 63 8 66 11
73 25 53 9 -13 10 -13 6 0 -2 8 -10 15 -18 15 -8 0 -17 7 -21 15 -14 28 4
-334 18 -368 7 -18 16 -57 20 -85 8 -63 37 -109 112 -175 56 -48 58 -49 137
-54 100 -7 127 3 190 63 28 27 65 61 82 76 18 16 34 39 36 53 2 14 7 32 10 40
19 46 27 179 27 466 0 208 -4 324 -10 330 -7 7 -8 30 -1 70 9 59 8 74 -3 55z"/>
<path d="M992 1181 c-53 -14 -109 -57 -139 -108 -24 -42 -28 -60 -31 -149 -6
-138 11 -171 163 -328 141 -147 162 -187 156 -298 -1 -32 -41 -63 -69 -54 -29
9 -42 49 -42 126 0 103 4 100 -111 100 l-99 0 0 -108 c0 -147 16 -197 80 -255
38 -34 61 -46 106 -56 169 -33 280 15 326 144 17 48 22 83 22 175 1 160 -17
196 -175 349 -125 120 -165 179 -153 225 6 25 30 46 53 46 27 0 51 -41 51 -85
l0 -45 111 0 112 0 -5 63 c-3 34 -11 81 -19 105 -17 58 -78 125 -126 140 -53
16 -171 23 -211 13z"/>
<path d="M3342 1172 c-10 -7 -12 -126 -10 -563 l3 -554 228 -3 227 -2 0 105 0
105 -54 0 c-29 0 -81 3 -115 6 l-61 7 0 127 0 127 61 7 c34 3 82 6 105 6 l44
0 0 95 0 95 -44 0 c-23 0 -71 3 -105 6 l-61 7 0 107 0 107 53 7 c28 3 78 6
110 6 l57 0 0 99 c0 81 -3 100 -16 105 -23 9 -407 7 -422 -2z"/>
<path d="M3940 615 l0 -565 103 0 104 0 6 252 c4 139 10 255 15 259 15 15 63
-4 73 -28 5 -13 9 -128 9 -254 l0 -229 105 0 105 0 0 245 c0 265 -6 302 -52
326 -12 6 -25 13 -26 15 -2 1 14 19 36 38 51 47 68 117 59 249 -9 124 -22 165
-67 208 -47 45 -68 49 -292 49 l-178 0 0 -565z m314 345 c11 -11 13 -136 2
-167 -7 -22 -57 -46 -80 -37 -28 11 -30 198 -2 216 12 9 66 0 80 -12z"/>
<path d="M2573 1083 c-6 -32 -9 -98 -7 -148 6 -147 4 -486 -2 -540 -4 -27 -12
-57 -19 -65 -14 -17 -29 -52 -27 -62 1 -4 -7 -10 -18 -13 -11 -4 -25 -15 -31
-26 -9 -17 -7 -20 7 -17 9 2 19 -4 21 -12 3 -11 2 -11 -4 -3 -5 7 -14 9 -22 4
-20 -13 -5 -30 20 -24 18 5 20 11 14 39 -5 30 -3 34 16 34 16 0 20 5 16 20 -3
13 3 26 18 38 17 14 21 26 19 52 -3 22 -1 28 3 18 5 -10 8 124 7 297 0 173 -3
318 -7 321 -4 4 -7 17 -7 28 0 13 3 17 8 9 4 -6 8 15 9 48 0 32 0 59 -2 59 -1
0 -7 -26 -12 -57z"/>
<path d="M2157 792 c-10 -10 -17 -27 -17 -38 0 -14 5 -10 21 15 23 38 21 50
-4 23z"/>
<path d="M2172 510 c0 -14 2 -19 5 -12 2 6 2 18 0 25 -3 6 -5 1 -5 -13z"/>
<path d="M2340 378 c0 -15 5 -30 10 -33 6 -4 8 -11 5 -16 -4 -5 -2 -9 3 -9 5
0 17 -18 27 -39 10 -22 24 -42 31 -45 18 -7 18 10 1 21 -7 4 -27 40 -45 78
-24 53 -32 63 -32 43z"/>
<path d="M2557 293 c-4 -3 -7 -11 -7 -17 0 -6 5 -5 12 2 6 6 9 14 7 17 -3 3
-9 2 -12 -2z"/>
<path d="M2366 253 c-6 -14 -5 -15 5 -6 7 7 10 15 7 18 -3 3 -9 -2 -12 -12z"/>
<path d="M2400 195 c7 -8 9 -15 4 -15 -5 0 -2 -5 6 -10 20 -13 50 -13 50 1 0
6 -7 9 -15 5 -9 -3 -19 3 -25 14 -6 11 -16 20 -22 20 -7 0 -6 -5 2 -15z"/>
<path d="M2355 180 c3 -5 8 -10 11 -10 2 0 4 5 4 10 0 6 -5 10 -11 10 -5 0 -7
-4 -4 -10z"/>
<path d="M2597 152 c6 -14 25 -12 30 4 2 5 -5 10 -16 10 -11 0 -17 -5 -14 -14z"/>
<path d="M2300 130 c0 -5 5 -10 10 -10 6 0 10 5 10 10 0 6 -4 10 -10 10 -5 0
-10 -4 -10 -10z"/>
<path d="M2464 78 c-3 -4 6 -8 20 -8 14 0 26 4 26 9 0 11 -39 10 -46 -1z"/>
<path d="M2410 70 c-9 -6 -10 -10 -3 -10 6 0 15 5 18 10 8 12 4 12 -15 0z"/>
</g>
</svg>
